<?xml version="1.0" encoding="utf-8"?>
<!-- Generator: Adobe Illustrator 19.0.0, SVG Export Plug-In . SVG Version: 6.00 Build 0)  -->
<svg version="1.1" id="Your_Icon" xmlns="http://www.w3.org/2000/svg" xmlns:xlink="http://www.w3.org/1999/xlink" x="0px" y="0px"
	 viewBox="0 0 612 612" style="enable-background:new 0 0 612 792;" xml:space="preserve">
<style type="text/css">
	.st0{fill:#313131;}
	.st1{fill:#E9454C;}
	.st2{font-family:'Arial';}
	.st3{font-size:210.5px;}
</style>
<g>
	<g>
		<path class="st0" d="M205.5,1.6c48.9-5,99,1.8,146.1,17.4c31.8,10.6,62.3,24.9,90.5,42.9c11,6.8,21.4,14.3,31.8,22.4
			c3.7-3.2,8-5,12.2-5c8-0.6,15.9,6.2,17.7,14.3c1.2,5,0,10-2.4,14.3c23.3,21.8,44.7,46.7,61.7,73.5c18.4,28,32.4,59.1,40.4,91.6
			c8.6,35.5,11,72.8,3.7,108.4c-5.5,26.8-15.9,51.7-31.8,74.1c-12.2,18-28.2,33.6-45.2,46.7c-34.3,25.5-75.8,40.5-118,46.1
			c-1.8,0-3.1,0.6-4.3,0.6c-3.1,16.8-11.6,33-25.1,44.3c-11,10-25.1,16.2-39.8,17.4c-15.9,1.8-31.8-1.8-45.2-10
			c-22.6-13.1-37.3-39.3-36.7-65.4c0-1.2,0.6-3.8-1.2-4.4c-59.3-19.9-113.7-53.5-158.3-97.8c-25.1-24.9-46.4-52.9-63.5-83.4
			C13.6,305.4-1.7,255,0.7,203.4c1.2-34.3,10.4-68.5,28.2-97.8c8.6-13.7,17.7-26.8,29.4-37.9c1.2-0.6,0-1.8,0-3.2
			c-3.7-9.4-1.8-20.6,4.3-28.7c3.1-3.8,6.7-7.4,11.6-9.4c9.8-5,22.6-3.2,31.2,3.8c0.6,0.6,1.8,0.6,2.4,0
			C137.1,14.6,171.2,4.7,205.5,1.6z M213.5,11c-34.9,3.8-69.7,14.3-99.7,33c1.2,4.4,2.4,8.7,1.8,13.1C115,68.9,107,79.4,96,83.8
			c-8.6,3.2-18.4,1.8-25.7-2.4c-8,9.4-15.3,19.3-21.4,30.5C33,139.3,25,171,24.4,202.1c-0.6,33,6.1,66,17.7,96.6
			c14.7,37.9,37.3,72.2,64.2,102.1c44.1,47.9,99.7,84.6,160.8,105.2c1.2-1.2,1.8-3.2,2.4-4.4c7.3-14.3,19-26.1,32.4-33
			c11-5.6,23.9-8.7,36.1-8.1c18.4,0.6,36.7,8.7,49.5,21.8c11,11.2,18.4,25.5,20.8,40.5c6.7,0,12.9-1.8,19.6-2.4
			c45.2-8.1,89.3-29.3,121.1-64.1c19-20.6,33-45.5,41-72.2c10.4-34.9,10.4-72.8,3.1-108.4c-7.3-34.3-22-67.3-41-96.6
			c-15.9-24.3-34.9-46.7-56.2-66.6c-6.7,3.8-15.3,3.2-20.8-2.4c-4.9-4.4-6.7-11.2-5.5-17.4c0-0.6,0.6-2.4,0-2.4
			C434.8,62.9,395,41.7,353.4,27.4C307.6,12.2,260,6,213.5,11z"/>
	</g>
	<g>
		<path class="st1" d="M201.8,85c25.1-14.3,53.8-20.6,82.5-19.9c37.3,0,74,10.6,107,27.4c29.4,15,55.6,35.5,77,60.4
			c20.8,23.7,37.3,52.3,45.2,82.8c7.3,29.9,6.7,62.3-6.1,90.2c4.9,7.4,6.1,18,3.1,26.1c-3.7,10-13.5,16.8-23.9,16.8
			c-3.7,0-8-0.6-11.6-1.8c-11.6,9.4-24.5,16.2-37.9,21.8c-38.6,14.3-80.7,13.1-119.9,1.8c-31.2-8.7-60.5-23.7-86.8-42.9
			c-25.1-19.3-47.6-42.9-63.5-71c-12.9-21.8-22-46.1-24.5-71.6c-2.4-23,0.6-46.7,10.4-67.3C163.4,115.6,181,96.8,201.8,85z
			 M274.6,76.3c-27.5,2.4-55.6,11.8-77,30.5c-18.4,15.6-30.6,38.6-34.9,62.3c-4.3,23.7-0.6,48.5,8,71c7.3,19.3,18.4,37.9,31.8,53.5
			c19,23.7,42.8,42.9,69.1,57.3c31.2,16.8,66,27.4,100.9,28c31.2,0.6,62.9-6.8,88.6-26.1c-2.4-6.2-3.7-13.7-1.2-19.9
			c2.4-8.1,9.2-15,17.1-18c4.9-1.8,10.4-1.8,15.9-0.6l0.6-0.6c10.4-21.2,12.9-46.1,9.2-69.1c-4.9-31.1-19.6-59.8-39.2-84
			c-21.4-26.1-48.9-47.9-78.8-62.9C351.1,81.9,312.5,73.2,274.6,76.3z"/>
	</g>
	<g>
		<path class="st0" d="M304,131.7c17.7-2.4,36.7,0,53.8,6.2c26.9,10,50.7,28.7,65.4,54.1c8.6,14.3,13.5,31.7,11,48.5
			c-1.2,14.3-9.2,28-20.2,37.3c-9.8,8.1-22,12.4-34.3,14.3c-16.5,2.4-33,0.6-48.9-5c-14.1-4.4-27.5-11.8-39.2-21.2
			c-0.6,0-1.2-0.6-1.8-0.6c-7.3,3.2-16.5,4.4-24.5,1.8c-11-3.2-19.6-11.8-22.6-23c-3.7-11.8,0-26.1,8.6-34.9
			c-1.8-8.7-3.1-18-1.8-27.4c1.8-11.2,6.1-22.4,14.1-30.5C274.6,140.5,289.3,133.6,304,131.7z M304.6,144.8
			c-11.6,3.2-23.3,10-30,20.6c-6.7,10-8.6,22.4-7.3,34.9c2.4,0,5.5-0.6,8-0.6c8,0,15.3,2.4,21.4,7.4c8,6.8,12.9,17.4,12.2,27.4
			c0,7.4-2.4,14.3-6.7,19.9c14.7,11.2,31.8,18.7,49.5,21.2c15.3,1.8,31.8,0,45.2-8.7c10.4-6.8,18.4-17.4,20.8-30.5
			s-0.6-27.4-6.1-39.3c-11.6-23.7-33.7-41.1-57.4-49.9C338.8,142.9,321.1,140.5,304.6,144.8z"/>
	</g>
</g>
<text transform="matrix(0.9964 0 0 1 320.3008 611.1965)"><tspan x="0" y="0" class="st1 st2 st3">R</tspan><tspan x="151.5" y="0" class="st0 st2 st3">T</tspan></text>
</svg>
